<?xml version="1.0" encoding="utf-8"?>
<!-- Generator: Adobe Illustrator 21.0.2, SVG Export Plug-In . SVG Version: 6.00 Build 0)  -->
<svg version="1.1" id="Layer_1" xmlns="http://www.w3.org/2000/svg" xmlns:xlink="http://www.w3.org/1999/xlink" x="0px" y="0px"
	 viewBox="0 0 264 15" style="enable-background:new 0 0 264 15;" xml:space="preserve">
<style type="text/css">
	.st0{fill:#FFFFFF;}
</style>
<g>
	<g>
		<path class="st0" d="M17.9,0c1.6,0,3,1.3,3,3v9c0,1.6-1.3,3-3,3H22V0H17.9z"/>
	</g>
	<g>
		<path class="st0" d="M1,12V3c0-1.7,1.3-3,3-3H0v15h4C2.3,15,1,13.6,1,12z"/>
	</g>
</g>
<g>
	<g>
		<path class="st0" d="M39.9,0c1.6,0,3,1.3,3,3v9c0,1.6-1.3,3-3,3H44V0H39.9z"/>
	</g>
	<g>
		<path class="st0" d="M23,12V3c0-1.7,1.3-3,3-3h-4v15h4C24.3,15,23,13.6,23,12z"/>
	</g>
</g>
<g>
	<g>
		<path class="st0" d="M61.9,0c1.6,0,3,1.3,3,3v9c0,1.6-1.3,3-3,3H66V0H61.9z"/>
	</g>
	<g>
		<path class="st0" d="M45,12V3c0-1.7,1.3-3,3-3h-4v15h4C46.3,15,45,13.6,45,12z"/>
	</g>
</g>
<g>
	<g>
		<path class="st0" d="M83.9,0c1.6,0,3,1.3,3,3v9c0,1.6-1.3,3-3,3H88V0H83.9z"/>
	</g>
	<g>
		<path class="st0" d="M67,12V3c0-1.7,1.3-3,3-3h-4v15h4C68.3,15,67,13.6,67,12z"/>
	</g>
</g>
<g>
	<g>
		<path class="st0" d="M105.9,0c1.6,0,3,1.3,3,3v9c0,1.6-1.3,3-3,3h4.1V0H105.9z"/>
	</g>
	<g>
		<path class="st0" d="M89,12V3c0-1.7,1.3-3,3-3h-4v15h4C90.3,15,89,13.6,89,12z"/>
	</g>
</g>
<g>
	<g>
		<path class="st0" d="M127.9,0c1.6,0,3,1.3,3,3v9c0,1.6-1.3,3-3,3h4.1V0H127.9z"/>
	</g>
	<g>
		<path class="st0" d="M111,12V3c0-1.7,1.3-3,3-3h-4v15h4C112.3,15,111,13.6,111,12z"/>
	</g>
</g>
<g>
	<g>
		<path class="st0" d="M149.9,0c1.6,0,3,1.3,3,3v9c0,1.6-1.3,3-3,3h4.1V0H149.9z"/>
	</g>
	<g>
		<path class="st0" d="M133,12V3c0-1.7,1.3-3,3-3h-4v15h4C134.3,15,133,13.6,133,12z"/>
	</g>
</g>
<g>
	<g>
		<path class="st0" d="M171.9,0c1.6,0,3,1.3,3,3v9c0,1.6-1.3,3-3,3h4.1V0H171.9z"/>
	</g>
	<g>
		<path class="st0" d="M155,12V3c0-1.7,1.3-3,3-3h-4v15h4C156.3,15,155,13.6,155,12z"/>
	</g>
</g>
<g>
	<g>
		<path class="st0" d="M193.9,0c1.6,0,3,1.3,3,3v9c0,1.6-1.3,3-3,3h4.1V0H193.9z"/>
	</g>
	<g>
		<path class="st0" d="M177,12V3c0-1.7,1.3-3,3-3h-4v15h4C178.3,15,177,13.6,177,12z"/>
	</g>
</g>
<g>
	<g>
		<path class="st0" d="M215.9,0c1.6,0,3,1.3,3,3v9c0,1.6-1.3,3-3,3h4.1V0H215.9z"/>
	</g>
	<g>
		<path class="st0" d="M199,12V3c0-1.7,1.3-3,3-3h-4v15h4C200.3,15,199,13.6,199,12z"/>
	</g>
</g>
<g>
	<g>
		<path class="st0" d="M237.9,0c1.6,0,3,1.3,3,3v9c0,1.6-1.3,3-3,3h4.1V0H237.9z"/>
	</g>
	<g>
		<path class="st0" d="M221,12V3c0-1.7,1.3-3,3-3h-4v15h4C222.3,15,221,13.6,221,12z"/>
	</g>
</g>
<g>
	<g>
		<path class="st0" d="M259.9,0c1.6,0,3,1.3,3,3v9c0,1.6-1.3,3-3,3h4.1V0H259.9z"/>
	</g>
	<g>
		<path class="st0" d="M243,12V3c0-1.7,1.3-3,3-3h-4v15h4C244.3,15,243,13.6,243,12z"/>
	</g>
</g>
</svg>
