<?xml version="1.0" encoding="utf-8"?>
<!-- Generator: Adobe Illustrator 21.0.2, SVG Export Plug-In . SVG Version: 6.00 Build 0)  -->
<svg version="1.1" id="Layer_1" xmlns="http://www.w3.org/2000/svg" xmlns:xlink="http://www.w3.org/1999/xlink" x="0px" y="0px"
	 viewBox="0 0 273 15" style="enable-background:new 0 0 273 15;" xml:space="preserve">
<style type="text/css">
	.st0{fill:#EAEDF0;}
</style>
<g>
	<path class="st0" d="M17,15H3c-1.6,0-3-1.4-3-3V3c0-1.6,1.4-3,3-3h14c1.6,0,3,1.4,3,3v9C20,13.6,18.6,15,17,15z"/>
</g>
<g>
	<path class="st0" d="M40,15H26c-1.6,0-3-1.4-3-3V3c0-1.6,1.4-3,3-3h14c1.7,0,3,1.4,3,3v9C43,13.6,41.7,15,40,15z"/>
</g>
<g>
	<path class="st0" d="M63,15H49c-1.7,0-3-1.4-3-3V3c0-1.6,1.3-3,3-3h14c1.7,0,3,1.4,3,3v9C66,13.6,64.7,15,63,15z"/>
</g>
<g>
	<path class="st0" d="M86,15H72c-1.7,0-3-1.4-3-3V3c0-1.6,1.3-3,3-3h14c1.7,0,3,1.4,3,3v9C89,13.6,87.7,15,86,15z"/>
</g>
<g>
	<path class="st0" d="M109,15H95c-1.7,0-3-1.4-3-3V3c0-1.6,1.3-3,3-3h14c1.7,0,3,1.4,3,3v9C112,13.6,110.7,15,109,15z"/>
</g>
<g>
	<path class="st0" d="M132,15h-14c-1.7,0-3-1.4-3-3V3c0-1.6,1.3-3,3-3h14c1.6,0,3,1.4,3,3v9C135,13.6,133.6,15,132,15z"/>
</g>
<g>
	<path class="st0" d="M155,15h-14c-1.6,0-3-1.4-3-3V3c0-1.6,1.4-3,3-3h14c1.6,0,3,1.4,3,3v9C158,13.6,156.6,15,155,15z"/>
</g>
<g>
	<path class="st0" d="M178,15h-14c-1.6,0-3-1.4-3-3V3c0-1.6,1.4-3,3-3h14c1.6,0,3,1.4,3,3v9C181,13.6,179.6,15,178,15z"/>
</g>
<g>
	<path class="st0" d="M201,15h-14c-1.6,0-3-1.4-3-3V3c0-1.6,1.4-3,3-3h14c1.6,0,3,1.4,3,3v9C204,13.6,202.6,15,201,15z"/>
</g>
<g>
	<path class="st0" d="M224,15h-14c-1.6,0-3-1.4-3-3V3c0-1.6,1.4-3,3-3h14c1.6,0,3,1.4,3,3v9C227,13.6,225.6,15,224,15z"/>
</g>
<g>
	<path class="st0" d="M247,15h-14c-1.6,0-3-1.4-3-3V3c0-1.6,1.4-3,3-3h14c1.6,0,3,1.4,3,3v9C250,13.6,248.6,15,247,15z"/>
</g>
<g>
	<path class="st0" d="M270,15h-14c-1.6,0-3-1.4-3-3V3c0-1.6,1.4-3,3-3h14c1.6,0,3,1.4,3,3v9C273,13.6,271.6,15,270,15z"/>
</g>
</svg>
